<?xml version="1.0" encoding="utf-8"?>
<!-- Generator: Adobe Illustrator 26.1.0, SVG Export Plug-In . SVG Version: 6.00 Build 0)  -->
<svg version="1.1" id="Camada_1" xmlns="http://www.w3.org/2000/svg" xmlns:xlink="http://www.w3.org/1999/xlink" x="0px" y="0px"
	 viewBox="0 0 40.8 38.5" style="enable-background:new 0 0 40.8 38.5;" xml:space="preserve">
<style type="text/css">
	.st0{fill:#FFFFFF;}
	.st1{fill:none;stroke:#FFFFFF;stroke-miterlimit:10;}
</style>
<g id="Camada_2_00000173865611629184948540000006814984491124859571_">
	<g id="Camada_1-2">
		<path class="st0" d="M22.2,38c-3.9,0.1-7.8-0.9-11.2-2.9c-1.1-0.6-2.1-1.4-3-2.2C7.7,33,7.5,33,7.2,33l-0.1-2.2
			c0.9,0,1.8-0.3,2.5-0.9l0.1-0.1c0.5-0.6,0.8-1.3,0.8-2l2.4,0.2c-0.2,1.4-0.9,2.8-2.1,3.7c0.6,0.6,1.3,1.1,2.1,1.6
			c1.4,0.8,3,1.2,4.5,1.3c2.7,0.1,5.4-0.7,7.6-2.3c1.3-0.9,2.4-1.9,3.3-3.2c-0.6-1.9-0.2-4,0.9-5.6c1.3-1.6,3.2-2.6,5.3-2.4
			l-0.1,2.5h-0.2c-1.9,0.1-3.4,1.7-3.5,3.7l0,0c0.2,2.1,2.1,3.7,4.3,3.5c0.6-0.1,1.2-0.3,1.7-0.6l0,0c0.7-0.6,1.2-1.4,1.4-2.3
			l2.2,0.3c-0.1,0.3-0.1,0.5-0.2,0.8l0,0.2c-0.2,0.6-0.5,1.3-0.8,1.9c-0.6,0.9-1.3,1.8-2.2,2.5C32.7,36.5,27.5,38.2,22.2,38z"/>
		<path class="st0" d="M1.6,29.6c-0.6-1-0.9-2.2-1-3.4c-0.6-5,0.4-10,2.9-14.3c2.8-4.2,7.2-7.3,12.2-8.4c0.3-0.5,0.6-0.9,1-1.3h0.1
			c0.5-0.5,1-0.9,1.7-1.2c0.4-0.2,0.7-0.3,1.1-0.4l0.3,2.1c-0.6,0.1-1.2,0.4-1.7,0.9c0,0-0.1,0.1-0.1,0.1l0,0
			c-0.6,0.7-0.9,1.7-0.8,2.6L15,6.6c0-0.1,0-0.1,0-0.2c-0.9,0.2-1.8,0.6-2.7,1.1c-1.1,0.7-2,1.6-2.7,2.7c-1.4,2.1-2.1,4.7-2,7.2
			c0,1.4,0.3,2.8,0.7,4.1l0,0c0.6,0.2,1.2,0.4,1.7,0.8c2,1.2,3.1,3.5,2.8,5.9l-2.4-0.2c0.1-1.9-1.3-3.6-3.2-3.7
			c-1.9-0.1-3.6,1.3-3.7,3.2c0,0.6,0.1,1.2,0.3,1.7c0.1,0.1,0.1,0.3,0.2,0.4c0.3,0.4,0.6,0.7,1,0.9c0.6,0.4,1.4,0.6,2.1,0.6L7.1,33
			c-1.3,0.1-2.6-0.4-3.7-1.2l-0.1-0.1L3,31.4L2.7,31c-0.2-0.2-0.4-0.4-0.5-0.6l-0.3-0.5l0,0l-0.1-0.1C1.7,29.7,1.7,29.7,1.6,29.6z"
			/>
		<path class="st0" d="M20.5,11.6c-2.9,0-5.3-2.2-5.5-5.1l2.1-0.2c0,0.4,0.1,0.7,0.3,1.1c0.8,1.8,2.9,2.6,4.6,1.8c0,0,0,0,0,0
			c0.4-0.2,0.8-0.4,1.1-0.7l0.1-0.1c1.2-1.5,1-3.7-0.5-4.9c-0.6-0.5-1.4-0.8-2.2-0.8c-0.2,0-0.5,0-0.7,0.1l-0.3-2.1
			c0.4-0.1,0.9-0.1,1.3-0.1c1.4,0,2.9,0.2,4.2,0.8c8,3.2,11.2,8.1,11.2,8.1c2.5,4.1,3.5,8.9,2.7,13.6l0,0c0.9,1,1.4,2.3,1.4,3.7
			c0,0.4,0,0.9-0.1,1.3l-2.2-0.3c0-0.1,0-0.3,0-0.4c0.1-2.1-1.6-3.8-3.7-3.9c0,0,0,0-0.1,0l0.2-2.5H35h0.2h0.1h0.2
			c0.3,0,0.7,0.1,1,0.2c0.2-0.7,0.2-1.4,0.2-2.1c-0.1-1.3-0.6-2.5-1.3-3.6c-1.4-2.2-3.4-3.8-5.8-4.8c-1.2-0.5-2.5-0.9-3.8-1
			c-0.9,0.7-1.9,1.3-3,1.5C22,11.5,21.3,11.6,20.5,11.6L20.5,11.6z"/>
		<path class="st1" d="M40.2,28c0.1-0.4,0.1-0.9,0.1-1.4c-0.1-1.3-0.6-2.6-1.4-3.6l0,0c0.8-4.7-0.2-9.6-2.7-13.6
			c0,0-3.2-4.9-11.2-8.1c-1.3-0.6-2.7-0.8-4.2-0.8c-0.4,0-0.9,0-1.3,0.1c-0.4,0.1-0.8,0.2-1.1,0.4c-0.6,0.3-1.2,0.7-1.7,1.2h-0.1
			c-0.4,0.4-0.7,0.8-1,1.3c-5,1.2-9.3,4.2-12.1,8.5C1.1,16.3,0,21.3,0.6,26.3c0.1,1.2,0.4,2.3,1,3.4c0,0,0,0.1,0.1,0.1l0.1,0.1l0,0
			l0.3,0.5c0.2,0.2,0.3,0.4,0.5,0.6L3,31.4l0.3,0.3l0.1,0.1c1,0.9,2.3,1.3,3.7,1.2c0.3,0,0.6,0,0.9-0.1c0.9,0.8,1.9,1.6,3,2.2
			c3.4,1.9,7.3,2.9,11.2,2.9c5.3,0.2,10.5-1.5,14.8-4.6c0.8-0.7,1.6-1.5,2.1-2.5c0.4-0.6,0.6-1.2,0.9-1.9l0.1-0.2
			C40.1,28.5,40.2,28.3,40.2,28z"/>
		<path class="st1" d="M17.2,6.4c-0.1-1,0.2-1.9,0.8-2.6l0,0c0,0,0.1-0.1,0.1-0.1c0.5-0.5,1.1-0.8,1.7-0.9c0.2,0,0.5-0.1,0.7-0.1
			c1.9,0,3.5,1.6,3.5,3.5c0,0.8-0.3,1.6-0.8,2.2l-0.1,0.1c-0.3,0.3-0.7,0.6-1.1,0.7c-1.8,0.8-3.8,0-4.6-1.8
			C17.3,7.1,17.2,6.7,17.2,6.4z"/>
		<path class="st1" d="M10.5,27.8c-0.1,0.7-0.4,1.4-0.8,2l-0.1,0.1c-0.7,0.6-1.6,0.9-2.5,0.9c-0.7,0-1.4-0.2-2.1-0.6
			c-0.4-0.2-0.7-0.5-1-0.9c-0.1-0.1-0.2-0.2-0.2-0.3c-0.8-1.8,0-3.8,1.8-4.6c1.8-0.8,3.8,0,4.6,1.8C10.4,26.7,10.5,27.3,10.5,27.8
			L10.5,27.8z"/>
		<path class="st1" d="M34.5,21c-2-0.1-4,0.8-5.2,2.5c-1.1,1.6-1.5,3.7-0.9,5.6c-0.9,1.2-2.1,2.3-3.4,3.2c-2.2,1.6-4.9,2.4-7.7,2.3
			c-1.6-0.1-3.1-0.6-4.6-1.3c-0.8-0.4-1.5-1-2.1-1.6c1.1-0.9,1.9-2.2,2.1-3.7c0.3-2.3-0.8-4.6-2.8-5.8c-0.5-0.3-1.1-0.6-1.7-0.8l0,0
			c-0.5-1.3-0.7-2.7-0.7-4.1c-0.1-2.6,0.6-5.1,2-7.2c0.7-1.1,1.6-2,2.7-2.7C13.1,7,14,6.6,15,6.4c0,0.1,0,0.1,0,0.2
			c0.2,2.9,2.6,5.1,5.5,5.1l0,0c0.8,0,1.5,0,2.2-0.2c1.1-0.3,2.1-0.8,3-1.5c1.3,0.1,2.6,0.5,3.8,1c2.4,0.9,4.4,2.6,5.8,4.8
			c0.7,1.1,1.2,2.3,1.3,3.6c0.1,0.7,0,1.4-0.2,2.1c-0.3-0.1-0.7-0.2-1-0.2h-0.2h-0.1L35,21H34.5z"/>
		<path class="st1" d="M38.1,27.8c-0.2,0.9-0.7,1.8-1.4,2.3l0,0c-1.8,1.1-4.2,0.6-5.4-1.3c-0.3-0.5-0.5-1.1-0.6-1.7l0,0
			c0-1.9,1.5-3.5,3.5-3.7h0.2c2.1,0,3.8,1.8,3.7,3.8c0,0,0,0,0,0.1C38.1,27.5,38.1,27.6,38.1,27.8z"/>
	</g>
</g>
</svg>
